<svg width="397" height="336" viewBox="0 0 397 336" fill="none" xmlns="http://www.w3.org/2000/svg">
<path d="M325.429 187.047C314.183 190.355 284.361 188.425 270.855 187.047H255.144L234.472 210.2L244.395 215.988C245.773 223.154 250.348 238.148 257.625 240.794C264.901 243.44 279.951 236.935 286.566 233.352C289.873 242.448 297.315 250.716 316.333 253.197C331.548 255.182 331.492 240.794 329.563 233.352C338.934 238.589 359.496 247.409 366.772 240.794C374.049 234.179 367.048 221.5 362.638 215.988C384.964 214.334 393.233 208.546 395.713 200.277C398.194 192.008 384.137 182.086 370.907 179.605C357.677 177.125 339.486 182.913 325.429 187.047Z" fill="black"/>
<path d="M79.8466 84.5144C83.8156 91.1294 101.345 104.359 109.614 110.148L84.8079 151.491L69.0972 153.972C60.4977 148.018 60.5529 134.954 61.6554 129.166C50.0791 130.819 36.8491 127.512 27.7535 120.897C20.477 115.605 24.7216 102.154 27.7535 96.0907C23.7845 95.4292 15.0747 90.3026 11.2159 87.8219C6.5303 84.2388 -2.01408 75.0881 1.29343 67.1501C4.60093 59.212 18.6578 60.535 25.2728 62.1888C17.0041 51.1638 3.27793 27.2946 14.5234 20.0181C25.7689 12.7416 42.9128 26.3575 50.0791 34.075C58.3478 48.1319 75.8776 77.8994 79.8466 84.5144Z" fill="black"/>
<path d="M325.429 187.047C314.183 190.355 284.361 188.425 270.855 187.047H255.144L234.472 210.2L244.395 215.988C245.773 223.154 250.348 238.148 257.625 240.794C264.901 243.44 279.951 236.935 286.566 233.352C289.873 242.448 297.315 250.716 316.333 253.197C331.548 255.182 331.492 240.794 329.563 233.352C338.934 238.589 359.496 247.409 366.772 240.794C374.049 234.179 367.048 221.5 362.638 215.988C384.964 214.334 393.233 208.546 395.713 200.277C398.194 192.008 384.137 182.086 370.907 179.605C357.677 177.125 339.486 182.913 325.429 187.047Z" stroke="black"/>
<path d="M79.8466 84.5144C83.8156 91.1294 101.345 104.359 109.614 110.148L84.8079 151.491L69.0972 153.972C60.4977 148.018 60.5529 134.954 61.6554 129.166C50.0791 130.819 36.8491 127.512 27.7535 120.897C20.477 115.605 24.7216 102.154 27.7535 96.0907C23.7845 95.4292 15.0747 90.3026 11.2159 87.8219C6.5303 84.2388 -2.01408 75.0881 1.29343 67.1501C4.60093 59.212 18.6578 60.535 25.2728 62.1888C17.0041 51.1638 3.27793 27.2946 14.5234 20.0181C25.7689 12.7416 42.9128 26.3575 50.0791 34.075C58.3478 48.1319 75.8776 77.8994 79.8466 84.5144Z" stroke="black"/>
<path d="M90.5957 131.646C40.3217 177.951 30.5097 234.179 31.0609 258.985L194.782 335.058C193.68 311.354 205.035 251.047 259.278 199.45C313.521 147.853 318.262 90.8538 313.852 68.8038L153.438 1C153.438 25.255 140.87 85.3413 90.5957 131.646Z" fill="black" stroke="black"/>
<path fill-rule="evenodd" clip-rule="evenodd" d="M198.471 33.2905L271.947 64.78L271.676 66.6767C271.016 71.3005 270.743 78.575 272.048 85.2549C273.375 92.0523 276.168 97.4619 280.966 99.5943L282.364 100.216L282.447 101.744C282.756 107.47 280.436 118.348 273.14 133.184C265.799 148.109 253.322 167.25 233.013 189.557C192.875 233.643 177.549 271.342 174.906 284.291L174.384 286.85L171.85 286.217C167.724 285.185 161.205 284.576 155.193 286.054C149.273 287.509 144.056 290.905 141.753 297.812L140.874 300.451L69.8056 267.988L69.9093 266.276C70.1693 261.986 69.7358 255.025 67.5848 248.317C65.4285 241.591 61.6676 235.472 55.5341 232.259L54.1941 231.557V230.045C54.1941 222.38 58.1141 190.358 102.902 146.4C142.96 107.083 157.909 68.7234 164.28 52.3763C164.944 50.6717 165.515 49.2064 166.012 48.0044L166.775 46.1552L168.747 46.4951C172.465 47.1362 178.461 47.328 184.158 45.8186C189.829 44.316 194.9 41.226 197.464 35.5297L198.471 33.2905ZM200.891 39.7673C197.282 45.8674 191.324 49.0926 185.438 50.6519C179.86 52.1296 174.128 52.1827 169.911 51.7069C169.606 52.4781 169.276 53.3248 168.919 54.243C162.531 70.644 147.249 109.88 106.404 149.968C65.1615 190.447 59.7551 220.037 59.2409 228.614C66.1396 232.814 70.1269 239.869 72.3461 246.79C74.4481 253.346 75.0599 260.062 74.9678 264.849L138.031 293.656C141.396 286.416 147.625 282.765 154 281.198C159.861 279.758 165.985 280.025 170.578 280.839C174.638 265.113 190.912 228.372 229.316 186.191C249.359 164.177 261.55 145.419 268.653 130.977C275.129 117.809 277.294 108.395 277.463 103.417C271.366 99.9224 268.454 92.939 267.14 86.2133C265.874 79.7277 265.96 72.8588 266.489 67.881L200.891 39.7673Z" fill="white"/>
<circle cx="199.744" cy="121.724" r="47.9588" fill="white"/>
<path d="M152.402 231.805C154.31 227.409 154.194 223.673 152.055 220.597C150.967 219.002 149.43 217.718 147.444 216.744C144.303 215.203 141.348 215.187 138.58 216.698C136.972 217.561 134.97 219.354 132.574 222.076L152.402 231.805ZM109.755 226.734C112.243 227.955 114.591 228.094 116.8 227.151C119.021 226.183 121.093 224.44 123.014 221.922L105.297 213.228C103.807 216.582 103.66 219.425 104.854 221.757C106.06 224.064 107.694 225.723 109.755 226.734ZM106.878 233.742C103.058 231.867 100.299 228.783 98.6021 224.489C96.9172 220.17 97.289 215.473 99.7173 210.397L94.7037 207.937L96.4609 204.356L101.399 206.779C104.205 201.95 107.568 198.845 111.489 197.464C115.397 196.045 119.518 196.321 123.852 198.292L120.615 204.888C118.618 204.127 116.719 203.835 114.918 204.011C111.603 204.349 109.032 206.221 107.204 209.627L125.525 218.617C130.019 213.588 133.494 210.382 135.95 208.999C139.977 206.766 144.303 206.783 148.927 209.052C155.612 212.332 159.295 216.837 159.976 222.566C160.35 225.743 159.673 229.729 157.943 234.524L165.256 238.113L163.499 241.694L156.186 238.105C152.12 245.184 147.096 248.877 141.114 249.185C137.873 249.372 134.092 248.405 129.769 246.284L133.043 239.612C136.585 241.1 139.363 241.793 141.378 241.69C144.982 241.525 147.996 239.418 150.419 235.369L129.875 225.288C126.181 230.211 122.493 233.375 118.81 234.779C115.127 236.184 111.15 235.838 106.878 233.742Z" fill="white"/>
</svg>
