<?xml version="1.0" standalone="no"?>
<!DOCTYPE svg PUBLIC "-//W3C//DTD SVG 20010904//EN"
 "http://www.w3.org/TR/2001/REC-SVG-20010904/DTD/svg10.dtd">
<svg version="1.0" xmlns="http://www.w3.org/2000/svg"
 width="794.000000pt" height="794.000000pt" viewBox="0 0 794.000000 794.000000"
 preserveAspectRatio="xMidYMid meet">
<metadata>
Created by potrace 1.11, written by Peter Selinger 2001-2013
</metadata>
<g transform="translate(0.000000,794.000000) scale(0.100000,-0.100000)"
fill="#000000" stroke="none">
<path d="M3052 7173 c-51 -618 -316 -1310 -715 -1866 -48 -67 -98 -134 -110
-150 l-23 -28 -105 77 c-169 125 -341 268 -415 346 -59 63 -111 145 -368 583
-320 544 -329 558 -474 668 -234 179 -450 223 -574 119 -127 -107 -71 -381
149 -721 34 -53 61 -96 60 -97 -1 -1 -29 3 -62 8 -76 12 -216 4 -275 -17 -92
-31 -148 -117 -136 -208 15 -108 117 -253 233 -330 75 -50 171 -101 249 -135
l52 -22 -31 -87 c-22 -64 -31 -113 -35 -180 -8 -161 29 -214 213 -303 140 -68
248 -93 406 -94 l126 -1 1 -105 c1 -159 34 -259 113 -345 21 -23 39 -45 39
-48 0 -4 -36 -55 -79 -114 -203 -276 -392 -644 -510 -990 -44 -129 -105 -375
-130 -523 -21 -120 -50 -455 -40 -463 3 -4 3244 -1511 3274 -1523 7 -3 15 55
23 164 32 451 159 891 392 1352 146 288 354 604 544 825 l34 40 11 -45 c42
-164 108 -311 174 -386 65 -74 119 -91 237 -74 91 13 254 66 350 115 40 20 73
35 75 33 1 -2 17 -32 36 -67 89 -169 269 -278 525 -316 166 -25 254 8 302 113
23 50 26 70 26 160 -1 56 2 101 5 99 124 -66 321 -140 430 -162 200 -40 316 5
352 139 20 74 -30 246 -100 345 -30 41 -26 51 18 51 48 0 196 25 276 47 153
41 259 117 306 218 36 74 36 107 3 173 -39 79 -129 154 -259 217 -158 76 -221
90 -385 89 -164 -2 -309 -29 -588 -109 -262 -75 -294 -79 -597 -79 -247 0
-602 19 -617 33 -4 3 18 35 49 71 475 552 774 1266 800 1911 5 124 -9 364 -22
377 -3 3 -3215 1362 -3219 1362 -1 0 -7 -66 -14 -147z m1669 -830 l720 -308
-7 -39 c-10 -62 -7 -275 5 -349 24 -143 84 -252 162 -295 48 -27 49 -27 49
-79 0 -198 -129 -535 -337 -879 -158 -260 -359 -525 -633 -834 -429 -486 -703
-866 -928 -1290 -116 -219 -222 -483 -252 -623 -9 -47 -15 -57 -28 -53 -89 27
-276 35 -361 15 -142 -32 -219 -104 -287 -266 -9 -22 -29 -13 -714 300 l-705
322 -2 50 c-6 107 -25 247 -44 315 -42 151 -134 286 -236 346 l-44 25 7 72
c34 371 263 824 643 1275 63 74 207 231 320 347 297 303 458 493 637 750 234
336 405 655 574 1075 34 85 66 162 70 170 7 13 21 14 97 6 114 -12 257 11 348
54 71 34 156 118 177 176 9 27 17 34 31 30 10 -2 342 -143 738 -313z"/>
<path d="M3979 6481 c-91 -119 -273 -190 -492 -191 l-88 0 -13 -32 c-238 -585
-421 -917 -727 -1323 -142 -190 -260 -324 -517 -591 -127 -132 -270 -286 -318
-343 -316 -369 -522 -730 -605 -1058 -41 -161 -39 -180 16 -221 88 -64 170
-194 214 -336 26 -84 51 -232 51 -302 l0 -50 628 -287 627 -287 15 22 c74 109
140 165 240 202 79 29 217 48 324 44 l80 -3 18 60 c60 198 208 510 367 775
210 349 437 651 780 1040 328 371 499 597 670 887 146 248 261 522 290 697
l12 69 -56 49 c-42 38 -65 70 -95 131 -54 113 -73 211 -75 391 l-2 150 -649
278 c-357 153 -651 278 -654 277 -3 0 -21 -22 -41 -48z m139 -636 c94 -9 226
-50 319 -100 350 -186 542 -538 511 -937 -31 -392 -310 -726 -704 -840 -69
-20 -102 -23 -249 -23 -190 0 -258 14 -401 79 -617 286 -749 1107 -252 1571
113 106 238 178 385 220 89 26 229 45 293 39 19 -2 64 -6 98 -9z m-1721 -2455
c81 -18 82 -20 46 -93 l-31 -64 -50 10 c-67 14 -125 -3 -174 -53 -21 -21 -38
-42 -38 -47 0 -5 80 -48 179 -95 l178 -85 88 84 c111 108 168 137 263 131 90
-5 169 -44 248 -122 94 -95 118 -207 74 -348 -11 -34 -20 -64 -20 -65 0 -2 32
-19 70 -38 39 -19 70 -39 70 -45 0 -16 -23 -60 -31 -60 -5 0 -39 15 -75 33
l-67 32 -21 -30 c-11 -16 -48 -57 -81 -91 -70 -71 -125 -94 -222 -94 -67 0
-192 35 -200 56 -2 6 9 39 26 72 l31 61 56 -20 c67 -22 132 -24 177 -6 31 13
107 88 107 105 0 5 -90 52 -199 106 l-200 97 -74 -75 c-97 -99 -160 -130 -256
-124 -169 9 -304 140 -318 307 -4 50 2 84 32 177 6 19 0 24 -39 39 -48 19 -53
28 -34 70 14 30 18 31 68 5 22 -11 41 -20 44 -20 3 0 19 20 36 44 41 61 111
116 173 137 60 21 97 23 164 9z"/>
<path d="M2091 3014 c-21 -83 10 -156 88 -205 64 -41 130 -40 195 2 44 29 84
74 75 84 -7 6 -333 165 -340 165 -4 0 -12 -21 -18 -46z"/>
<path d="M2807 3008 c-38 -10 -158 -110 -146 -122 5 -5 378 -186 384 -186 9 0
25 70 25 113 0 89 -67 169 -166 196 -45 12 -46 12 -97 -1z"/>
</g>
</svg>
